<?xml version="1.0" standalone="no"?><!DOCTYPE svg PUBLIC "-//W3C//DTD SVG 1.1//EN" "http://www.w3.org/Graphics/SVG/1.1/DTD/svg11.dtd"><svg t="1741671520188" class="icon" viewBox="0 0 1160 1024" version="1.1" xmlns="http://www.w3.org/2000/svg" p-id="27994" xmlns:xlink="http://www.w3.org/1999/xlink" width="226.5625" height="200"><path d="M115.953605 0l361.58491 1.160458c70.651384 0.204787 129.698193 52.28885 141.302768 121.233679h315.030085c59.661169 0 109.49258 46.145252 114.953556 106.42078l28.328816 214.889428c8.874087 96.659285-46.759612 433.942849-141.98539 442.95346a170.655517 170.655517 0 0 1-16.041619 0.750884H227.971887c-89.423491 0-164.170608-69.149616-172.430335-159.528777L0.11264 122.394137l0.068262-0.546098A116.728374 116.728374 0 0 1 115.953605 0z" fill="#FCB901" p-id="27995"></path><path d="M343.744589 341.311034h705.831219C1110.87527 341.311034 1160.570157 397.081257 1160.570157 465.957824c0 14.198539-2.184391 28.260554-6.348385 41.639946l-117.615783 372.575125c-23.072626 72.904037-83.689466 122.394137-152.566032 124.442003l-644.736544 19.249943c-91.949193 2.730488-168.402864-78.706325-170.860304-181.918781A206.01534 206.01534 0 0 1 87.078692 750.884276L245.173963 408.549308C264.287381 367.250673 302.30943 341.311034 343.744589 341.311034z" fill="#FDD759" p-id="27996"></path></svg>